<mxfile host="app.diagrams.net" agent="Mozilla/5.0 (Windows NT 10.0; Win64; x64) AppleWebKit/537.36 (KHTML, like Gecko) Chrome/136.0.0.0 Safari/537.36 Edg/136.0.0.0" version="27.1.1">
  <diagram id="1cen6F0pKEglF9MSGJp_" name="Сторінка-1">
    <mxGraphModel dx="786" dy="552" grid="1" gridSize="10" guides="1" tooltips="1" connect="1" arrows="1" fold="1" page="1" pageScale="1" pageWidth="827" pageHeight="1169" math="0" shadow="0">
      <root>
        <mxCell id="0" />
        <mxCell id="1" parent="0" />
        <mxCell id="uMgJuq0zAGavcUWCigHo-29" value="&lt;ul&gt;&lt;li&gt;10 epochs&lt;/li&gt;&lt;li&gt;AdamW optimizer&lt;/li&gt;&lt;li&gt;Cosine learning rate scheduler&lt;/li&gt;&lt;/ul&gt;" style="text;html=1;strokeColor=none;fillColor=none;align=left;verticalAlign=middle;whiteSpace=wrap;rounded=0;" parent="1" vertex="1">
          <mxGeometry x="485" y="565" width="290" height="30" as="geometry" />
        </mxCell>
        <mxCell id="uMgJuq0zAGavcUWCigHo-13" style="edgeStyle=orthogonalEdgeStyle;rounded=0;orthogonalLoop=1;jettySize=auto;html=1;exitX=0.5;exitY=1;exitDx=0;exitDy=0;entryX=0.5;entryY=0;entryDx=0;entryDy=0;" parent="1" source="uMgJuq0zAGavcUWCigHo-9" target="uMgJuq0zAGavcUWCigHo-4" edge="1">
          <mxGeometry relative="1" as="geometry" />
        </mxCell>
        <mxCell id="uMgJuq0zAGavcUWCigHo-9" value="" style="rounded=1;whiteSpace=wrap;html=1;dashed=1;" parent="1" vertex="1">
          <mxGeometry x="200" y="20" width="450" height="100" as="geometry" />
        </mxCell>
        <mxCell id="uMgJuq0zAGavcUWCigHo-11" style="edgeStyle=orthogonalEdgeStyle;rounded=0;orthogonalLoop=1;jettySize=auto;html=1;entryX=0;entryY=0.5;entryDx=0;entryDy=0;" parent="1" source="uMgJuq0zAGavcUWCigHo-1" target="uMgJuq0zAGavcUWCigHo-2" edge="1">
          <mxGeometry relative="1" as="geometry" />
        </mxCell>
        <mxCell id="uMgJuq0zAGavcUWCigHo-1" value="Dataset loading" style="rounded=1;whiteSpace=wrap;html=1;" parent="1" vertex="1">
          <mxGeometry x="220" y="50" width="120" height="60" as="geometry" />
        </mxCell>
        <mxCell id="uMgJuq0zAGavcUWCigHo-12" style="edgeStyle=orthogonalEdgeStyle;rounded=0;orthogonalLoop=1;jettySize=auto;html=1;exitX=1;exitY=0.5;exitDx=0;exitDy=0;" parent="1" source="uMgJuq0zAGavcUWCigHo-2" target="uMgJuq0zAGavcUWCigHo-3" edge="1">
          <mxGeometry relative="1" as="geometry" />
        </mxCell>
        <mxCell id="uMgJuq0zAGavcUWCigHo-2" value="Data normalization *" style="rounded=1;whiteSpace=wrap;html=1;" parent="1" vertex="1">
          <mxGeometry x="365" y="50" width="120" height="60" as="geometry" />
        </mxCell>
        <mxCell id="uMgJuq0zAGavcUWCigHo-3" value="Data pre-processing" style="rounded=1;whiteSpace=wrap;html=1;" parent="1" vertex="1">
          <mxGeometry x="510" y="50" width="120" height="60" as="geometry" />
        </mxCell>
        <mxCell id="uMgJuq0zAGavcUWCigHo-14" style="edgeStyle=orthogonalEdgeStyle;rounded=0;orthogonalLoop=1;jettySize=auto;html=1;exitX=0.5;exitY=1;exitDx=0;exitDy=0;entryX=0.5;entryY=0;entryDx=0;entryDy=0;" parent="1" source="uMgJuq0zAGavcUWCigHo-4" target="uMgJuq0zAGavcUWCigHo-5" edge="1">
          <mxGeometry relative="1" as="geometry" />
        </mxCell>
        <mxCell id="uMgJuq0zAGavcUWCigHo-4" value="Train/val/test data distribution" style="rounded=1;whiteSpace=wrap;html=1;" parent="1" vertex="1">
          <mxGeometry x="365" y="150" width="120" height="60" as="geometry" />
        </mxCell>
        <mxCell id="uMgJuq0zAGavcUWCigHo-17" style="edgeStyle=orthogonalEdgeStyle;rounded=0;orthogonalLoop=1;jettySize=auto;html=1;exitX=0.5;exitY=1;exitDx=0;exitDy=0;" parent="1" source="uMgJuq0zAGavcUWCigHo-5" target="uMgJuq0zAGavcUWCigHo-16" edge="1">
          <mxGeometry relative="1" as="geometry" />
        </mxCell>
        <mxCell id="uMgJuq0zAGavcUWCigHo-5" value="Text tokenization" style="rounded=1;whiteSpace=wrap;html=1;" parent="1" vertex="1">
          <mxGeometry x="365" y="240" width="120" height="60" as="geometry" />
        </mxCell>
        <mxCell id="uMgJuq0zAGavcUWCigHo-20" style="edgeStyle=orthogonalEdgeStyle;rounded=0;orthogonalLoop=1;jettySize=auto;html=1;exitX=0.5;exitY=1;exitDx=0;exitDy=0;entryX=0.5;entryY=0;entryDx=0;entryDy=0;" parent="1" source="uMgJuq0zAGavcUWCigHo-7" target="uMgJuq0zAGavcUWCigHo-8" edge="1">
          <mxGeometry relative="1" as="geometry" />
        </mxCell>
        <mxCell id="uMgJuq0zAGavcUWCigHo-7" value="Loss function" style="rounded=1;whiteSpace=wrap;html=1;" parent="1" vertex="1">
          <mxGeometry x="365" y="460" width="120" height="60" as="geometry" />
        </mxCell>
        <mxCell id="uMgJuq0zAGavcUWCigHo-21" style="edgeStyle=orthogonalEdgeStyle;rounded=0;orthogonalLoop=1;jettySize=auto;html=1;exitX=0.5;exitY=1;exitDx=0;exitDy=0;" parent="1" source="uMgJuq0zAGavcUWCigHo-8" target="uMgJuq0zAGavcUWCigHo-19" edge="1">
          <mxGeometry relative="1" as="geometry" />
        </mxCell>
        <mxCell id="uMgJuq0zAGavcUWCigHo-8" value="Model training" style="rounded=1;whiteSpace=wrap;html=1;" parent="1" vertex="1">
          <mxGeometry x="365" y="550" width="120" height="60" as="geometry" />
        </mxCell>
        <mxCell id="uMgJuq0zAGavcUWCigHo-10" value="Data preparation" style="text;html=1;align=center;verticalAlign=middle;whiteSpace=wrap;rounded=0;" parent="1" vertex="1">
          <mxGeometry x="355" y="20" width="140" height="30" as="geometry" />
        </mxCell>
        <mxCell id="uMgJuq0zAGavcUWCigHo-18" style="edgeStyle=orthogonalEdgeStyle;rounded=0;orthogonalLoop=1;jettySize=auto;html=1;exitX=0.5;exitY=1;exitDx=0;exitDy=0;entryX=0.5;entryY=0;entryDx=0;entryDy=0;" parent="1" source="uMgJuq0zAGavcUWCigHo-15" target="uMgJuq0zAGavcUWCigHo-7" edge="1">
          <mxGeometry relative="1" as="geometry" />
        </mxCell>
        <mxCell id="uMgJuq0zAGavcUWCigHo-15" value="" style="rounded=1;whiteSpace=wrap;html=1;dashed=1;" parent="1" vertex="1">
          <mxGeometry x="200" y="330" width="450" height="100" as="geometry" />
        </mxCell>
        <mxCell id="uMgJuq0zAGavcUWCigHo-16" value="Model architecture" style="text;html=1;align=center;verticalAlign=middle;whiteSpace=wrap;rounded=0;" parent="1" vertex="1">
          <mxGeometry x="355" y="330" width="140" height="30" as="geometry" />
        </mxCell>
        <mxCell id="uMgJuq0zAGavcUWCigHo-19" value="Model evaluation" style="rounded=1;whiteSpace=wrap;html=1;" parent="1" vertex="1">
          <mxGeometry x="365" y="640" width="120" height="60" as="geometry" />
        </mxCell>
        <mxCell id="uMgJuq0zAGavcUWCigHo-25" style="edgeStyle=orthogonalEdgeStyle;rounded=0;orthogonalLoop=1;jettySize=auto;html=1;exitX=1;exitY=0.5;exitDx=0;exitDy=0;entryX=0;entryY=0.5;entryDx=0;entryDy=0;" parent="1" source="uMgJuq0zAGavcUWCigHo-22" target="uMgJuq0zAGavcUWCigHo-23" edge="1">
          <mxGeometry relative="1" as="geometry" />
        </mxCell>
        <mxCell id="uMgJuq0zAGavcUWCigHo-22" value="Pretrained transformer uploading" style="rounded=1;whiteSpace=wrap;html=1;" parent="1" vertex="1">
          <mxGeometry x="220" y="360" width="120" height="60" as="geometry" />
        </mxCell>
        <mxCell id="uMgJuq0zAGavcUWCigHo-26" style="edgeStyle=orthogonalEdgeStyle;rounded=0;orthogonalLoop=1;jettySize=auto;html=1;exitX=1;exitY=0.5;exitDx=0;exitDy=0;entryX=0;entryY=0.5;entryDx=0;entryDy=0;" parent="1" source="uMgJuq0zAGavcUWCigHo-23" target="uMgJuq0zAGavcUWCigHo-24" edge="1">
          <mxGeometry relative="1" as="geometry" />
        </mxCell>
        <mxCell id="uMgJuq0zAGavcUWCigHo-23" value="Custom classifier declaration" style="rounded=1;whiteSpace=wrap;html=1;" parent="1" vertex="1">
          <mxGeometry x="365" y="360" width="120" height="60" as="geometry" />
        </mxCell>
        <mxCell id="uMgJuq0zAGavcUWCigHo-24" value="Gradient checkpointing" style="rounded=1;whiteSpace=wrap;html=1;" parent="1" vertex="1">
          <mxGeometry x="510" y="360" width="120" height="60" as="geometry" />
        </mxCell>
        <mxCell id="uMgJuq0zAGavcUWCigHo-27" value="" style="html=1;shape=mxgraph.flowchart.annotation_2;align=left;labelPosition=right;" parent="1" vertex="1">
          <mxGeometry x="495" y="550" width="20" height="60" as="geometry" />
        </mxCell>
        <mxCell id="uMgJuq0zAGavcUWCigHo-34" value="&lt;ul&gt;&lt;li&gt;Weighted cross-entropy loss&lt;/li&gt;&lt;/ul&gt;" style="text;html=1;strokeColor=none;fillColor=none;align=left;verticalAlign=middle;whiteSpace=wrap;rounded=0;" parent="1" vertex="1">
          <mxGeometry x="485" y="475" width="290" height="30" as="geometry" />
        </mxCell>
        <mxCell id="uMgJuq0zAGavcUWCigHo-35" value="" style="html=1;shape=mxgraph.flowchart.annotation_2;align=left;labelPosition=right;" parent="1" vertex="1">
          <mxGeometry x="495" y="470" width="20" height="40" as="geometry" />
        </mxCell>
        <mxCell id="uMgJuq0zAGavcUWCigHo-38" value="&lt;ul&gt;&lt;li&gt;DistilBERT-based tokenizer&lt;/li&gt;&lt;/ul&gt;" style="text;html=1;strokeColor=none;fillColor=none;align=left;verticalAlign=middle;whiteSpace=wrap;rounded=0;" parent="1" vertex="1">
          <mxGeometry x="485" y="255" width="290" height="30" as="geometry" />
        </mxCell>
        <mxCell id="uMgJuq0zAGavcUWCigHo-39" value="" style="html=1;shape=mxgraph.flowchart.annotation_2;align=left;labelPosition=right;" parent="1" vertex="1">
          <mxGeometry x="495" y="250" width="20" height="40" as="geometry" />
        </mxCell>
      </root>
    </mxGraphModel>
  </diagram>
</mxfile>
